<svg xmlns="http://www.w3.org/2000/svg" xmlns:xlink="http://www.w3.org/1999/xlink" width="500" zoomAndPan="magnify" viewBox="0 0 375 374.999991" height="500" preserveAspectRatio="xMidYMid meet" version="1.0"><defs><clipPath id="8a49e70d01"><path d="M 45.113281 4.804688 L 153 4.804688 L 153 305 L 45.113281 305 Z M 45.113281 4.804688 " clip-rule="nonzero"/></clipPath><clipPath id="3d9377258c"><path d="M 167 63 L 275 63 L 275 363.304688 L 167 363.304688 Z M 167 63 " clip-rule="nonzero"/></clipPath><clipPath id="2497cdb717"><path d="M 311 16 L 330.113281 16 L 330.113281 36 L 311 36 Z M 311 16 " clip-rule="nonzero"/></clipPath></defs><g clip-path="url(#8a49e70d01)"><path fill="#393536" d="M 45.199219 173.53125 L 45.199219 136.070312 C 52.804688 135.65625 58.535156 134.511719 62.394531 132.636719 C 66.246094 130.761719 69.585938 127.621094 72.398438 123.195312 C 75.210938 118.773438 77.140625 113.234375 78.183594 106.574219 C 79.011719 101.578125 79.433594 92.890625 79.433594 80.507812 C 79.433594 60.324219 80.371094 46.25 82.246094 38.292969 C 84.121094 30.335938 87.507812 23.933594 92.40625 19.097656 C 97.304688 14.257812 104.441406 10.433594 113.820312 7.625 C 120.175781 5.753906 130.179688 4.816406 143.832031 4.816406 L 152.117188 4.816406 L 152.117188 42.121094 C 140.550781 42.121094 133.125 42.769531 129.84375 44.066406 C 126.5625 45.371094 124.140625 47.34375 122.574219 49.996094 C 121.011719 52.648438 120.230469 57.203125 120.230469 63.65625 C 120.230469 70.210938 119.761719 82.644531 118.824219 100.953125 C 118.300781 111.253906 116.949219 119.605469 114.757812 126.003906 C 112.570312 132.402344 109.78125 137.683594 106.394531 141.84375 C 103.007812 146.007812 97.824219 150.328125 90.84375 154.800781 C 96.992188 158.339844 102.019531 162.472656 105.929688 167.207031 C 109.835938 171.941406 112.828125 177.691406 114.914062 184.453125 C 117 191.214844 118.355469 200.269531 118.980469 211.609375 C 119.707031 228.882812 120.074219 239.910156 120.074219 244.695312 C 120.074219 251.5625 120.90625 256.347656 122.574219 259.054688 C 124.242188 261.757812 126.769531 263.816406 130.15625 265.21875 C 133.539062 266.625 140.863281 267.324219 152.117188 267.324219 L 152.117188 304.78125 L 143.832031 304.78125 C 129.765625 304.78125 118.980469 303.660156 111.476562 301.429688 C 103.972656 299.191406 97.644531 295.46875 92.484375 290.269531 C 87.328125 285.066406 83.859375 278.640625 82.089844 270.992188 C 80.316406 263.34375 79.433594 251.300781 79.433594 234.863281 C 79.433594 215.722656 78.597656 203.285156 76.929688 197.5625 C 74.636719 189.238281 71.171875 183.28125 66.535156 179.691406 C 61.898438 176.101562 54.785156 174.050781 45.199219 173.53125 " fill-opacity="1" fill-rule="nonzero"/></g><path fill="#eeb30d" d="M 282.347656 82.523438 L 257.878906 82.523438 L 257.878906 58.09375 L 282.347656 58.09375 L 282.347656 82.523438 " fill-opacity="1" fill-rule="nonzero"/><path fill="#eeb30d" d="M 276.570312 131.375 L 257.878906 131.375 L 257.878906 112.714844 L 276.570312 112.714844 L 276.570312 131.375 " fill-opacity="1" fill-rule="nonzero"/><g clip-path="url(#3d9377258c)"><path fill="#eeb30d" d="M 205.394531 101.1875 L 205.394531 82.523438 L 224.089844 82.523438 L 224.089844 101.1875 Z M 252.945312 188.441406 C 248.253906 184.851562 244.761719 178.898438 242.46875 170.574219 C 241.210938 165.878906 240.460938 156.878906 240.214844 143.589844 L 224.089844 143.589844 L 224.089844 119.160156 L 239.859375 119.160156 C 239.46875 109.742188 238.644531 102.402344 237.390625 97.140625 C 235.566406 89.496094 232.101562 83.042969 226.996094 77.792969 C 221.890625 72.539062 215.585938 68.816406 208.082031 66.628906 C 200.578125 64.445312 189.792969 63.355469 175.722656 63.355469 L 167.4375 63.355469 L 167.4375 100.652344 C 179.214844 100.652344 186.796875 101.355469 190.183594 102.761719 C 193.570312 104.167969 195.914062 106.167969 197.21875 108.769531 C 198.519531 111.371094 199.222656 116.570312 199.328125 124.375 C 199.847656 149.136719 200.679688 165.164062 201.828125 172.445312 C 203.597656 183.058594 206.933594 191.796875 211.832031 198.664062 C 215.375 203.453125 221 208.34375 228.714844 213.335938 C 222.773438 216.769531 217.898438 220.75 214.097656 225.277344 C 210.292969 229.800781 207.246094 235.316406 204.953125 241.820312 C 202.664062 248.320312 201.257812 256.984375 200.734375 267.804688 C 199.898438 285.703125 199.457031 297.820312 199.40625 304.167969 C 199.351562 310.515625 198.519531 315.015625 196.90625 317.667969 C 195.285156 320.324219 192.761719 322.351562 189.324219 323.757812 C 185.882812 325.164062 178.585938 325.863281 167.4375 325.863281 L 167.4375 363.320312 L 175.722656 363.320312 C 189.375 363.320312 199.378906 362.382812 205.734375 360.511719 C 215.21875 357.699219 222.40625 353.878906 227.308594 349.042969 C 232.207031 344.203125 235.566406 337.777344 237.390625 329.765625 C 239.210938 321.75 240.128906 307.65625 240.128906 287.46875 C 240.128906 275.195312 240.542969 266.558594 241.375 261.5625 C 242.523438 254.90625 244.476562 249.363281 247.238281 244.941406 C 249.996094 240.519531 253.308594 237.371094 257.164062 235.5 C 261.015625 233.625 266.753906 232.480469 274.359375 232.066406 L 274.359375 194.605469 C 264.769531 194.089844 257.632812 192.03125 252.945312 188.441406 " fill-opacity="1" fill-rule="nonzero"/></g><g clip-path="url(#2497cdb717)"><path fill="#eeb30d" d="M 330.050781 35.078125 L 311.359375 35.078125 L 311.359375 16.414062 L 330.050781 16.414062 L 330.050781 35.078125 " fill-opacity="1" fill-rule="nonzero"/></g><path fill="#eeb30d" d="M 236.320312 58.09375 L 201.425781 58.09375 L 201.425781 23.253906 L 236.320312 23.253906 L 236.320312 58.09375 " fill-opacity="1" fill-rule="nonzero"/></svg>