<svg width="80" height="17" viewBox="0 0 80 17" fill="none" xmlns="http://www.w3.org/2000/svg">
<path d="M3.97123 12.716C2.49523 12.716 1.40923 12.086 0.713228 10.826L1.79323 10.07C2.05723 10.538 2.35723 10.88 2.69323 11.096C3.02923 11.3 3.40723 11.402 3.82723 11.402C4.46323 11.402 4.93723 11.21 5.24923 10.826C5.56123 10.43 5.71723 9.782 5.71723 8.882V0.692H7.22923V9.026C7.22923 9.698 7.11523 10.316 6.88723 10.88C6.67123 11.444 6.32323 11.894 5.84323 12.23C5.36323 12.554 4.73923 12.716 3.97123 12.716ZM12.2957 12.716C11.5637 12.716 10.9517 12.5 10.4597 12.068C9.97967 11.624 9.73967 11.012 9.73967 10.232C9.73967 9.272 10.1657 8.54 11.0177 8.036C11.8817 7.52 13.2437 7.16 15.1037 6.956C15.1037 6.584 15.0497 6.23 14.9417 5.894C14.8457 5.558 14.6657 5.288 14.4017 5.084C14.1497 4.868 13.7837 4.76 13.3037 4.76C12.7997 4.76 12.3257 4.856 11.8817 5.048C11.4377 5.24 11.0417 5.456 10.6937 5.696L10.1177 4.67C10.5257 4.406 11.0237 4.154 11.6117 3.914C12.2117 3.662 12.8597 3.536 13.5557 3.536C14.6237 3.536 15.3977 3.866 15.8777 4.526C16.3577 5.174 16.5977 6.044 16.5977 7.136V12.5H15.3737L15.2477 11.456H15.1937C14.7857 11.792 14.3357 12.086 13.8437 12.338C13.3637 12.59 12.8477 12.716 12.2957 12.716ZM12.7277 11.528C13.1477 11.528 13.5437 11.426 13.9157 11.222C14.2877 11.018 14.6837 10.73 15.1037 10.358V7.928C13.6517 8.108 12.6317 8.378 12.0437 8.738C11.4677 9.098 11.1797 9.56 11.1797 10.124C11.1797 10.616 11.3297 10.976 11.6297 11.204C11.9297 11.42 12.2957 11.528 12.7277 11.528ZM21.24 12.5L18.09 3.752H19.62L21.276 8.72C21.408 9.152 21.54 9.584 21.672 10.016C21.816 10.448 21.954 10.874 22.086 11.294H22.158C22.29 10.874 22.422 10.448 22.554 10.016C22.698 9.584 22.83 9.152 22.95 8.72L24.606 3.752H26.064L22.968 12.5H21.24ZM29.4168 12.716C28.6848 12.716 28.0728 12.5 27.5808 12.068C27.1008 11.624 26.8608 11.012 26.8608 10.232C26.8608 9.272 27.2868 8.54 28.1388 8.036C29.0028 7.52 30.3648 7.16 32.2248 6.956C32.2248 6.584 32.1708 6.23 32.0628 5.894C31.9668 5.558 31.7868 5.288 31.5228 5.084C31.2708 4.868 30.9048 4.76 30.4248 4.76C29.9208 4.76 29.4468 4.856 29.0028 5.048C28.5588 5.24 28.1628 5.456 27.8148 5.696L27.2388 4.67C27.6468 4.406 28.1448 4.154 28.7328 3.914C29.3328 3.662 29.9808 3.536 30.6768 3.536C31.7448 3.536 32.5188 3.866 32.9988 4.526C33.4788 5.174 33.7188 6.044 33.7188 7.136V12.5H32.4948L32.3688 11.456H32.3148C31.9068 11.792 31.4568 12.086 30.9648 12.338C30.4848 12.59 29.9688 12.716 29.4168 12.716ZM29.8488 11.528C30.2688 11.528 30.6648 11.426 31.0368 11.222C31.4088 11.018 31.8048 10.73 32.2248 10.358V7.928C30.7728 8.108 29.7528 8.378 29.1648 8.738C28.5888 9.098 28.3008 9.56 28.3008 10.124C28.3008 10.616 28.4508 10.976 28.7508 11.204C29.0508 11.42 29.4168 11.528 29.8488 11.528ZM39.8911 12.716C39.0631 12.716 38.2951 12.56 37.5871 12.248C36.8791 11.924 36.2671 11.498 35.7511 10.97L36.6511 9.926C37.0711 10.37 37.5631 10.73 38.1271 11.006C38.7031 11.27 39.2971 11.402 39.9091 11.402C40.6891 11.402 41.2951 11.228 41.7271 10.88C42.1591 10.52 42.3751 10.052 42.3751 9.476C42.3751 9.068 42.2851 8.744 42.1051 8.504C41.9371 8.264 41.7031 8.06 41.4031 7.892C41.1151 7.724 40.7851 7.556 40.4131 7.388L38.7211 6.65C38.3491 6.494 37.9771 6.29 37.6051 6.038C37.2451 5.786 36.9391 5.462 36.6871 5.066C36.4471 4.67 36.3271 4.184 36.3271 3.608C36.3271 3.008 36.4831 2.474 36.7951 2.006C37.1191 1.526 37.5631 1.154 38.1271 0.889999C38.6911 0.613999 39.3271 0.475999 40.0351 0.475999C40.7431 0.475999 41.3971 0.613999 41.9971 0.889999C42.5971 1.154 43.1071 1.502 43.5271 1.934L42.7171 2.906C42.3571 2.558 41.9551 2.288 41.5111 2.096C41.0791 1.892 40.5871 1.79 40.0351 1.79C39.3751 1.79 38.8411 1.946 38.4331 2.258C38.0371 2.57 37.8391 2.99 37.8391 3.518C37.8391 3.89 37.9351 4.202 38.1271 4.454C38.3311 4.694 38.5831 4.892 38.8831 5.048C39.1831 5.204 39.4891 5.348 39.8011 5.48L41.4751 6.2C41.9311 6.392 42.3391 6.626 42.6991 6.902C43.0711 7.166 43.3651 7.496 43.5811 7.892C43.7971 8.276 43.9051 8.762 43.9051 9.35C43.9051 9.974 43.7431 10.544 43.4191 11.06C43.0951 11.564 42.6331 11.966 42.0331 12.266C41.4331 12.566 40.7191 12.716 39.8911 12.716ZM49.5423 12.716C48.7743 12.716 48.0783 12.536 47.4543 12.176C46.8303 11.816 46.3383 11.294 45.9783 10.61C45.6183 9.926 45.4383 9.104 45.4383 8.144C45.4383 7.16 45.6303 6.326 46.0143 5.642C46.4103 4.958 46.9263 4.436 47.5623 4.076C48.2103 3.716 48.9063 3.536 49.6503 3.536C50.2263 3.536 50.7183 3.638 51.1263 3.842C51.5463 4.046 51.9063 4.286 52.2063 4.562L51.4503 5.534C51.1983 5.306 50.9283 5.12 50.6403 4.976C50.3643 4.832 50.0523 4.76 49.7043 4.76C49.1763 4.76 48.7023 4.904 48.2823 5.192C47.8743 5.468 47.5503 5.864 47.3103 6.38C47.0823 6.884 46.9683 7.472 46.9683 8.144C46.9683 9.14 47.2143 9.95 47.7063 10.574C48.2103 11.186 48.8643 11.492 49.6683 11.492C50.0763 11.492 50.4543 11.408 50.8023 11.24C51.1503 11.06 51.4563 10.85 51.7203 10.61L52.3683 11.6C51.9723 11.948 51.5343 12.224 51.0543 12.428C50.5743 12.62 50.0703 12.716 49.5423 12.716ZM54.2953 12.5V3.752H55.5193L55.6453 5.336H55.6993C55.9993 4.784 56.3653 4.346 56.7973 4.022C57.2293 3.698 57.6913 3.536 58.1833 3.536C58.5313 3.536 58.8433 3.596 59.1193 3.716L58.8313 5.012C58.6873 4.964 58.5553 4.928 58.4353 4.904C58.3153 4.88 58.1653 4.868 57.9853 4.868C57.6133 4.868 57.2233 5.018 56.8153 5.318C56.4193 5.618 56.0713 6.14 55.7713 6.884V12.5H54.2953ZM60.5355 12.5V3.752H62.0115V12.5H60.5355ZM61.2915 1.952C61.0035 1.952 60.7635 1.868 60.5715 1.7C60.3915 1.52 60.3015 1.28 60.3015 0.979999C60.3015 0.691999 60.3915 0.457999 60.5715 0.278C60.7635 0.0979998 61.0035 0.0079999 61.2915 0.0079999C61.5795 0.0079999 61.8135 0.0979998 61.9935 0.278C62.1855 0.457999 62.2815 0.691999 62.2815 0.979999C62.2815 1.28 62.1855 1.52 61.9935 1.7C61.8135 1.868 61.5795 1.952 61.2915 1.952ZM64.9652 16.19V3.752H66.1892L66.3152 4.76H66.3692C66.7652 4.424 67.1972 4.136 67.6652 3.896C68.1452 3.656 68.6432 3.536 69.1592 3.536C70.2872 3.536 71.1452 3.944 71.7332 4.76C72.3212 5.564 72.6152 6.644 72.6152 8C72.6152 8.984 72.4352 9.83 72.0752 10.538C71.7272 11.246 71.2652 11.786 70.6892 12.158C70.1252 12.53 69.5072 12.716 68.8352 12.716C68.4272 12.716 68.0192 12.626 67.6112 12.446C67.2152 12.266 66.8132 12.02 66.4052 11.708L66.4412 13.238V16.19H64.9652ZM68.5832 11.474C69.3032 11.474 69.8972 11.168 70.3652 10.556C70.8452 9.932 71.0852 9.08 71.0852 8C71.0852 7.04 70.9052 6.266 70.5452 5.678C70.1972 5.078 69.6092 4.778 68.7812 4.778C68.4092 4.778 68.0312 4.88 67.6472 5.084C67.2752 5.288 66.8732 5.582 66.4412 5.966V10.556C66.8372 10.892 67.2212 11.132 67.5932 11.276C67.9652 11.408 68.2952 11.474 68.5832 11.474ZM77.4048 12.716C76.4688 12.716 75.8148 12.446 75.4428 11.906C75.0828 11.366 74.9028 10.664 74.9028 9.8V4.958H73.6068V3.842L74.9748 3.752L75.1548 1.304H76.3968V3.752H78.7548V4.958H76.3968V9.818C76.3968 10.358 76.4928 10.778 76.6848 11.078C76.8888 11.366 77.2428 11.51 77.7468 11.51C77.9028 11.51 78.0708 11.486 78.2508 11.438C78.4308 11.378 78.5928 11.324 78.7368 11.276L79.0248 12.392C78.7848 12.476 78.5208 12.548 78.2328 12.608C77.9568 12.68 77.6808 12.716 77.4048 12.716Z" fill="#F0F8FF"/>
</svg>
