<svg width="1188" height="725" viewBox="0 0 1188 725" fill="none" xmlns="http://www.w3.org/2000/svg">
<g clip-path="url(#clip0_55_82)">
<path d="M62.1316 463.09L150.4 462.797L156.527 450.455L68.5323 450.172L62.1316 463.09Z" fill="#F4A949"/>
<path d="M176.616 462.743L264.89 462.442L271.009 450.107L183.007 449.825L176.616 462.743Z" fill="#1C5F9A"/>
<path d="M128.084 435.736L216.336 435.44L222.455 423.095L134.468 422.82L128.084 435.736Z" fill="#1C5F9A"/>
<path d="M291.294 461.999L639.08 461.658L645.202 449.317L297.697 449.09L291.294 461.999Z" fill="#1C5F9A"/>
<path d="M266.941 435.642L840.407 433.038L846.53 420.704L273.352 422.723L266.941 435.642Z" fill="#9C27B0"/>
<path d="M629.215 298.842L1177.14 296.044L1183.27 283.706L635.605 285.933L629.215 298.842Z" fill="#1C5F9A"/>
<path d="M234.174 435.517L256.341 435.122L262.466 422.782L240.569 422.599L234.174 435.517Z" fill="#F4A949"/>
<path d="M472.161 406.801L557.865 405.819L563.978 393.478L478.564 393.893L472.161 406.801Z" fill="#F4A949"/>
<path d="M394.358 326.775L416.528 326.383L422.652 314.039L400.761 313.863L394.358 326.775Z" fill="#F4A949"/>
<path d="M429.094 327.008L451.257 326.615L457.372 314.278L435.503 314.088L429.094 327.008Z" fill="#F4A949"/>
<path d="M141.689 408.309L292.227 407.287L298.346 394.941L148.095 395.392L141.689 408.309Z" fill="#1C5F9A"/>
<path d="M441.277 380.675L591.838 379.647L597.957 367.307L447.688 367.755L441.277 380.675Z" fill="#1C5F9A"/>
<path d="M231.099 326.201L381.643 325.176L387.773 312.829L237.488 313.285L231.099 326.201Z" fill="#1C5F9A"/>
<path d="M450.369 299.359L600.943 298.346L607.058 286.011L456.781 286.453L450.369 299.359Z" fill="#1C5F9A"/>
<path d="M274.736 353.701L557.881 351.883L564.005 339.552L281.122 340.784L274.736 353.701Z" fill="#1C5F9A"/>
<path d="M311.652 407.066L462.198 406.043L468.315 393.704L318.046 394.154L311.652 407.066Z" fill="#1C5F9A"/>
<path d="M102.916 380.787L191.19 380.495L197.308 368.15L109.322 367.878L102.916 380.787Z" fill="#F4A949"/>
<path d="M205.909 380.991L417.748 380.594L423.866 368.252L212.293 368.068L205.909 380.991Z" fill="#9C27B0"/>
<path d="M570.558 352.191L981.237 352.542L987.35 340.192L576.971 339.272L570.558 352.191Z" fill="#9C27B0"/>
<path d="M166.248 355.801L254.529 355.513L260.654 343.166L172.664 342.883L166.248 355.801Z" fill="#F4A949"/>
<path d="M154.199 325.773L218.391 325.621L224.494 313.283L160.61 312.854L154.199 325.773Z" fill="#9C27B0"/>
<path d="M362.465 299.195L426.651 299.053L432.775 286.708L368.867 286.285L362.465 299.195Z" fill="#9C27B0"/>
<path d="M143.706 298.495L334.554 299.247L340.674 286.895L150.109 285.581L143.706 298.495Z" fill="#1C5F9A"/>
</g>
<defs>
<clipPath id="clip0_55_82">
<rect width="1188" height="725" fill="white" transform="matrix(1 0 0 -1 0 725)"/>
</clipPath>
</defs>
</svg>
