<svg width="71" height="70" viewBox="0 0 71 70" fill="none" xmlns="http://www.w3.org/2000/svg">
<g clip-path="url(#clip0_3_5973)">
<path d="M1.6438 0.546875V68.9062H70.0032V0.546875H1.6438ZM37.8026 58.7962C36.7936 60.8464 34.8675 62.1934 32.6358 62.8436C29.2063 63.6311 25.9261 63.1821 23.486 61.7176C21.853 60.7157 20.5777 59.1735 19.712 57.3967L24.9183 54.2084C24.9636 54.2276 25.1004 54.4748 25.283 54.7941C25.9469 55.9065 26.5195 56.694 27.645 57.2469C28.7508 57.6242 31.1783 57.8654 32.1157 55.9196C32.6883 54.9298 32.5061 51.748 32.5061 48.2278C32.5056 42.6962 32.5313 37.1875 32.5313 31.7188H38.9347C38.9347 37.7344 38.9675 43.4317 38.9347 49.3019C38.9483 52.9003 39.2606 56.1083 37.8026 58.7962ZM64.3665 56.9871C62.1408 64.6007 49.7311 64.8479 44.772 59.8177C43.7242 58.6337 43.0674 58.0152 42.4423 56.6486C45.0777 55.1327 45.0777 55.1327 47.642 53.649C49.0349 55.79 50.3228 56.9674 52.6399 57.4492C55.7833 57.8331 58.9459 56.753 58.2366 53.4144C57.5076 50.6877 51.7999 50.0243 47.9154 47.1084C43.9719 44.4598 43.0477 38.0242 46.2885 34.347C47.3686 32.987 49.2104 31.972 51.1431 31.4841L53.16 31.2233C57.0324 31.1451 59.4529 32.1677 61.2297 34.1518C61.724 34.6527 62.1276 35.1931 62.8823 36.3639C60.8195 37.6786 60.8261 37.666 57.8713 39.579C57.2402 38.2195 56.1929 37.3663 55.0861 36.9955C53.3678 36.4749 51.2011 37.0409 50.7515 38.8566C50.5957 39.416 50.6279 39.9366 50.8757 40.8609C51.5718 42.4484 53.9081 43.1386 56.0037 44.1016C62.0363 46.5484 64.0734 49.1717 64.5743 52.2944C65.0567 54.9828 64.4579 56.7268 64.3665 56.9871Z" fill="#F0F8FF"/>
</g>
<defs>
<clipPath id="clip0_3_5973">
<rect width="70" height="70" fill="white" transform="translate(0.550049)"/>
</clipPath>
</defs>
</svg>
