<svg width="1188" height="725" viewBox="0 0 1188 725" fill="none" xmlns="http://www.w3.org/2000/svg">
<g clip-path="url(#clip0_55_82)">
<path d="M62.1316 463.09L150.4 462.797L156.527 450.455L68.5323 450.172L62.1316 463.09Z" fill="#F4A949"/>
<path d="M176.616 462.743L264.89 462.442L271.009 450.107L183.007 449.825L176.616 462.743Z" fill="#1C5F9A"/>
<path d="M128.084 435.736L216.336 435.44L222.455 423.095L134.468 422.82L128.084 435.736Z" fill="#1C5F9A"/>
<path d="M291.294 461.999L639.08 461.658L645.202 449.317L297.697 449.09L291.294 461.999Z" fill="#1C5F9A"/>
<path d="M266.941 435.642L840.407 433.038L846.53 420.704L273.352 422.723L266.941 435.642Z" fill="#9C27B0"/>
<path d="M629.215 298.842L1177.14 296.044L1183.27 283.706L635.605 285.933L629.215 298.842Z" fill="#1C5F9A"/>
<path d="M234.174 435.517L256.341 435.122L262.466 422.782L240.569 422.599L234.174 435.517Z" fill="#F4A949"/>
<path d="M472.161 406.801L557.865 405.819L563.978 393.478L478.564 393.893L472.161 406.801Z" fill="#F4A949"/>
<path d="M394.358 326.775L416.528 326.383L422.652 314.039L400.761 313.863L394.358 326.775Z" fill="#F4A949"/>
<path d="M429.094 327.008L451.257 326.615L457.372 314.278L435.503 314.088L429.094 327.008Z" fill="#F4A949"/>
<path d="M141.689 408.309L292.227 407.287L298.346 394.941L148.095 395.392L141.689 408.309Z" fill="#1C5F9A"/>
<path d="M441.277 380.675L591.838 379.647L597.957 367.307L447.688 367.755L441.277 380.675Z" fill="#1C5F9A"/>
<path d="M231.099 326.201L381.643 325.176L387.773 312.829L237.488 313.285L231.099 326.201Z" fill="#1C5F9A"/>
<path d="M450.369 299.359L600.943 298.346L607.058 286.011L456.781 286.453L450.369 299.359Z" fill="#1C5F9A"/>
<path d="M274.736 353.701L557.881 351.883L564.005 339.552L281.122 340.784L274.736 353.701Z" fill="#1C5F9A"/>
<path d="M311.652 407.066L462.198 406.043L468.315 393.704L318.046 394.154L311.652 407.066Z" fill="#1C5F9A"/>
<path d="M102.916 380.787L191.19 380.495L197.308 368.15L109.322 367.878L102.916 380.787Z" fill="#F4A949"/>
<path d="M205.909 380.991L417.748 380.594L423.866 368.252L212.293 368.068L205.909 380.991Z" fill="#9C27B0"/>
<path d="M570.558 352.191L981.237 352.542L987.35 340.192L576.971 339.272L570.558 352.191Z" fill="#9C27B0"/>
<path d="M166.248 355.801L254.529 355.513L260.654 343.166L172.664 342.883L166.248 355.801Z" fill="#F4A949"/>
<path d="M154.199 325.773L218.391 325.621L224.494 313.283L160.61 312.854L154.199 325.773Z" fill="#9C27B0"/>
<path d="M362.465 299.195L426.651 299.053L432.775 286.708L368.867 286.285L362.465 299.195Z" fill="#9C27B0"/>
<path d="M143.706 298.495L334.554 299.247L340.674 286.895L150.109 285.581L143.706 298.495Z" fill="#1C5F9A"/>
<rect x="262" y="585" width="123.03" height="41.2249" rx="5" stroke="#F0F8FF" stroke-width="2"/>
<path d="M300.848 612.204C299.919 612.204 299.074 611.983 298.315 611.541C297.556 611.099 296.949 610.453 296.496 609.603C296.054 608.742 295.833 607.699 295.833 606.475C295.833 605.262 296.06 604.225 296.513 603.364C296.978 602.491 297.595 601.828 298.366 601.375C299.137 600.91 299.987 600.678 300.916 600.678C301.619 600.678 302.242 600.82 302.786 601.103C303.33 601.386 303.778 601.715 304.129 602.089L303.075 603.364C302.792 603.069 302.474 602.837 302.123 602.667C301.783 602.486 301.398 602.395 300.967 602.395C300.366 602.395 299.828 602.559 299.352 602.888C298.887 603.205 298.519 603.664 298.247 604.265C297.986 604.866 297.856 605.585 297.856 606.424C297.856 607.693 298.134 608.691 298.689 609.416C299.244 610.13 299.987 610.487 300.916 610.487C301.415 610.487 301.857 610.385 302.242 610.181C302.627 609.966 302.979 609.688 303.296 609.348L304.35 610.589C303.897 611.11 303.375 611.513 302.786 611.796C302.208 612.068 301.562 612.204 300.848 612.204ZM309.453 612.204C308.762 612.204 308.116 612.034 307.515 611.694C306.914 611.343 306.427 610.844 306.053 610.198C305.679 609.541 305.492 608.753 305.492 607.835C305.492 606.906 305.679 606.118 306.053 605.472C306.427 604.815 306.914 604.316 307.515 603.976C308.116 603.625 308.762 603.449 309.453 603.449C310.156 603.449 310.807 603.625 311.408 603.976C312.009 604.316 312.496 604.815 312.87 605.472C313.244 606.118 313.431 606.906 313.431 607.835C313.431 608.753 313.244 609.541 312.87 610.198C312.496 610.844 312.009 611.343 311.408 611.694C310.807 612.034 310.156 612.204 309.453 612.204ZM309.453 610.606C310.065 610.606 310.547 610.351 310.898 609.841C311.249 609.331 311.425 608.662 311.425 607.835C311.425 606.996 311.249 606.322 310.898 605.812C310.547 605.302 310.065 605.047 309.453 605.047C308.841 605.047 308.359 605.302 308.008 605.812C307.668 606.322 307.498 606.996 307.498 607.835C307.498 608.662 307.668 609.331 308.008 609.841C308.359 610.351 308.841 610.606 309.453 610.606ZM315.366 612V603.653H316.981L317.117 604.775H317.185C317.559 604.412 317.967 604.101 318.409 603.84C318.851 603.579 319.355 603.449 319.922 603.449C320.817 603.449 321.469 603.738 321.877 604.316C322.285 604.894 322.489 605.71 322.489 606.764V612H320.534V607.019C320.534 606.328 320.432 605.84 320.228 605.557C320.024 605.274 319.69 605.132 319.225 605.132C318.862 605.132 318.539 605.223 318.256 605.404C317.984 605.574 317.672 605.829 317.321 606.169V612H315.366ZM327.82 612.204C326.856 612.204 326.171 611.926 325.763 611.371C325.366 610.804 325.168 610.073 325.168 609.178V605.2H323.978V603.738L325.27 603.653L325.508 601.375H327.14V603.653H329.265V605.2H327.14V609.178C327.14 610.153 327.531 610.64 328.313 610.64C328.46 610.64 328.613 610.623 328.772 610.589C328.93 610.544 329.066 610.498 329.18 610.453L329.52 611.898C329.293 611.977 329.032 612.045 328.738 612.102C328.454 612.17 328.148 612.204 327.82 612.204ZM332.679 612.204C331.954 612.204 331.359 611.977 330.894 611.524C330.441 611.071 330.214 610.481 330.214 609.756C330.214 608.861 330.605 608.169 331.387 607.682C332.169 607.183 333.416 606.843 335.127 606.662C335.116 606.22 334.997 605.84 334.77 605.523C334.555 605.194 334.164 605.03 333.597 605.03C333.189 605.03 332.787 605.109 332.39 605.268C332.005 605.427 331.625 605.619 331.251 605.846L330.537 604.537C331.002 604.242 331.523 603.987 332.101 603.772C332.69 603.557 333.314 603.449 333.971 603.449C335.014 603.449 335.79 603.761 336.3 604.384C336.821 604.996 337.082 605.886 337.082 607.053V612H335.467L335.331 611.082H335.263C334.889 611.399 334.487 611.666 334.056 611.881C333.637 612.096 333.178 612.204 332.679 612.204ZM333.308 610.674C333.648 610.674 333.954 610.595 334.226 610.436C334.509 610.266 334.81 610.039 335.127 609.756V607.886C333.994 608.033 333.206 608.254 332.764 608.549C332.322 608.832 332.101 609.184 332.101 609.603C332.101 609.977 332.214 610.249 332.441 610.419C332.668 610.589 332.957 610.674 333.308 610.674ZM342.907 612.204C342.147 612.204 341.462 612.034 340.85 611.694C340.249 611.343 339.767 610.844 339.405 610.198C339.053 609.541 338.878 608.753 338.878 607.835C338.878 606.906 339.07 606.118 339.456 605.472C339.841 604.815 340.351 604.316 340.986 603.976C341.632 603.625 342.323 603.449 343.06 603.449C343.592 603.449 344.057 603.54 344.454 603.721C344.85 603.902 345.202 604.123 345.508 604.384L344.556 605.659C344.34 605.466 344.119 605.319 343.893 605.217C343.666 605.104 343.422 605.047 343.162 605.047C342.493 605.047 341.943 605.302 341.513 605.812C341.093 606.322 340.884 606.996 340.884 607.835C340.884 608.662 341.088 609.331 341.496 609.841C341.915 610.351 342.453 610.606 343.111 610.606C343.439 610.606 343.745 610.538 344.029 610.402C344.323 610.255 344.59 610.085 344.828 609.892L345.627 611.184C345.241 611.524 344.811 611.779 344.335 611.949C343.859 612.119 343.383 612.204 342.907 612.204ZM350.049 612.204C349.086 612.204 348.4 611.926 347.992 611.371C347.596 610.804 347.397 610.073 347.397 609.178V605.2H346.207V603.738L347.499 603.653L347.737 601.375H349.369V603.653H351.494V605.2H349.369V609.178C349.369 610.153 349.76 610.64 350.542 610.64C350.69 610.64 350.843 610.623 351.001 610.589C351.16 610.544 351.296 610.498 351.409 610.453L351.749 611.898C351.523 611.977 351.262 612.045 350.967 612.102C350.684 612.17 350.378 612.204 350.049 612.204Z" fill="#F0F8FF"/>
<rect x="262" y="585" width="123.03" height="42" rx="5" stroke="#F0F8FF" stroke-width="2"/>
<path d="M300.848 612.204C299.919 612.204 299.074 611.983 298.315 611.541C297.556 611.099 296.949 610.453 296.496 609.603C296.054 608.742 295.833 607.699 295.833 606.475C295.833 605.262 296.06 604.225 296.513 603.364C296.978 602.491 297.595 601.828 298.366 601.375C299.137 600.91 299.987 600.678 300.916 600.678C301.619 600.678 302.242 600.82 302.786 601.103C303.33 601.386 303.778 601.715 304.129 602.089L303.075 603.364C302.792 603.069 302.474 602.837 302.123 602.667C301.783 602.486 301.398 602.395 300.967 602.395C300.366 602.395 299.828 602.559 299.352 602.888C298.887 603.205 298.519 603.664 298.247 604.265C297.986 604.866 297.856 605.585 297.856 606.424C297.856 607.693 298.134 608.691 298.689 609.416C299.244 610.13 299.987 610.487 300.916 610.487C301.415 610.487 301.857 610.385 302.242 610.181C302.627 609.966 302.979 609.688 303.296 609.348L304.35 610.589C303.897 611.11 303.375 611.513 302.786 611.796C302.208 612.068 301.562 612.204 300.848 612.204ZM309.453 612.204C308.762 612.204 308.116 612.034 307.515 611.694C306.914 611.343 306.427 610.844 306.053 610.198C305.679 609.541 305.492 608.753 305.492 607.835C305.492 606.906 305.679 606.118 306.053 605.472C306.427 604.815 306.914 604.316 307.515 603.976C308.116 603.625 308.762 603.449 309.453 603.449C310.156 603.449 310.807 603.625 311.408 603.976C312.009 604.316 312.496 604.815 312.87 605.472C313.244 606.118 313.431 606.906 313.431 607.835C313.431 608.753 313.244 609.541 312.87 610.198C312.496 610.844 312.009 611.343 311.408 611.694C310.807 612.034 310.156 612.204 309.453 612.204ZM309.453 610.606C310.065 610.606 310.547 610.351 310.898 609.841C311.249 609.331 311.425 608.662 311.425 607.835C311.425 606.996 311.249 606.322 310.898 605.812C310.547 605.302 310.065 605.047 309.453 605.047C308.841 605.047 308.359 605.302 308.008 605.812C307.668 606.322 307.498 606.996 307.498 607.835C307.498 608.662 307.668 609.331 308.008 609.841C308.359 610.351 308.841 610.606 309.453 610.606ZM315.366 612V603.653H316.981L317.117 604.775H317.185C317.559 604.412 317.967 604.101 318.409 603.84C318.851 603.579 319.355 603.449 319.922 603.449C320.817 603.449 321.469 603.738 321.877 604.316C322.285 604.894 322.489 605.71 322.489 606.764V612H320.534V607.019C320.534 606.328 320.432 605.84 320.228 605.557C320.024 605.274 319.69 605.132 319.225 605.132C318.862 605.132 318.539 605.223 318.256 605.404C317.984 605.574 317.672 605.829 317.321 606.169V612H315.366ZM327.82 612.204C326.856 612.204 326.171 611.926 325.763 611.371C325.366 610.804 325.168 610.073 325.168 609.178V605.2H323.978V603.738L325.27 603.653L325.508 601.375H327.14V603.653H329.265V605.2H327.14V609.178C327.14 610.153 327.531 610.64 328.313 610.64C328.46 610.64 328.613 610.623 328.772 610.589C328.93 610.544 329.066 610.498 329.18 610.453L329.52 611.898C329.293 611.977 329.032 612.045 328.738 612.102C328.454 612.17 328.148 612.204 327.82 612.204ZM332.679 612.204C331.954 612.204 331.359 611.977 330.894 611.524C330.441 611.071 330.214 610.481 330.214 609.756C330.214 608.861 330.605 608.169 331.387 607.682C332.169 607.183 333.416 606.843 335.127 606.662C335.116 606.22 334.997 605.84 334.77 605.523C334.555 605.194 334.164 605.03 333.597 605.03C333.189 605.03 332.787 605.109 332.39 605.268C332.005 605.427 331.625 605.619 331.251 605.846L330.537 604.537C331.002 604.242 331.523 603.987 332.101 603.772C332.69 603.557 333.314 603.449 333.971 603.449C335.014 603.449 335.79 603.761 336.3 604.384C336.821 604.996 337.082 605.886 337.082 607.053V612H335.467L335.331 611.082H335.263C334.889 611.399 334.487 611.666 334.056 611.881C333.637 612.096 333.178 612.204 332.679 612.204ZM333.308 610.674C333.648 610.674 333.954 610.595 334.226 610.436C334.509 610.266 334.81 610.039 335.127 609.756V607.886C333.994 608.033 333.206 608.254 332.764 608.549C332.322 608.832 332.101 609.184 332.101 609.603C332.101 609.977 332.214 610.249 332.441 610.419C332.668 610.589 332.957 610.674 333.308 610.674ZM342.907 612.204C342.147 612.204 341.462 612.034 340.85 611.694C340.249 611.343 339.767 610.844 339.405 610.198C339.053 609.541 338.878 608.753 338.878 607.835C338.878 606.906 339.07 606.118 339.456 605.472C339.841 604.815 340.351 604.316 340.986 603.976C341.632 603.625 342.323 603.449 343.06 603.449C343.592 603.449 344.057 603.54 344.454 603.721C344.85 603.902 345.202 604.123 345.508 604.384L344.556 605.659C344.34 605.466 344.119 605.319 343.893 605.217C343.666 605.104 343.422 605.047 343.162 605.047C342.493 605.047 341.943 605.302 341.513 605.812C341.093 606.322 340.884 606.996 340.884 607.835C340.884 608.662 341.088 609.331 341.496 609.841C341.915 610.351 342.453 610.606 343.111 610.606C343.439 610.606 343.745 610.538 344.029 610.402C344.323 610.255 344.59 610.085 344.828 609.892L345.627 611.184C345.241 611.524 344.811 611.779 344.335 611.949C343.859 612.119 343.383 612.204 342.907 612.204ZM350.049 612.204C349.086 612.204 348.4 611.926 347.992 611.371C347.596 610.804 347.397 610.073 347.397 609.178V605.2H346.207V603.738L347.499 603.653L347.737 601.375H349.369V603.653H351.494V605.2H349.369V609.178C349.369 610.153 349.76 610.64 350.542 610.64C350.69 610.64 350.843 610.623 351.001 610.589C351.16 610.544 351.296 610.498 351.409 610.453L351.749 611.898C351.523 611.977 351.262 612.045 350.967 612.102C350.684 612.17 350.378 612.204 350.049 612.204Z" fill="#F0F8FF"/>
<rect x="262" y="585" width="123.03" height="42" rx="5" stroke="#F0F8FF" stroke-width="2"/>
<path d="M300.848 612.204C299.919 612.204 299.074 611.983 298.315 611.541C297.556 611.099 296.949 610.453 296.496 609.603C296.054 608.742 295.833 607.699 295.833 606.475C295.833 605.262 296.06 604.225 296.513 603.364C296.978 602.491 297.595 601.828 298.366 601.375C299.137 600.91 299.987 600.678 300.916 600.678C301.619 600.678 302.242 600.82 302.786 601.103C303.33 601.386 303.778 601.715 304.129 602.089L303.075 603.364C302.792 603.069 302.474 602.837 302.123 602.667C301.783 602.486 301.398 602.395 300.967 602.395C300.366 602.395 299.828 602.559 299.352 602.888C298.887 603.205 298.519 603.664 298.247 604.265C297.986 604.866 297.856 605.585 297.856 606.424C297.856 607.693 298.134 608.691 298.689 609.416C299.244 610.13 299.987 610.487 300.916 610.487C301.415 610.487 301.857 610.385 302.242 610.181C302.627 609.966 302.979 609.688 303.296 609.348L304.35 610.589C303.897 611.11 303.375 611.513 302.786 611.796C302.208 612.068 301.562 612.204 300.848 612.204ZM309.453 612.204C308.762 612.204 308.116 612.034 307.515 611.694C306.914 611.343 306.427 610.844 306.053 610.198C305.679 609.541 305.492 608.753 305.492 607.835C305.492 606.906 305.679 606.118 306.053 605.472C306.427 604.815 306.914 604.316 307.515 603.976C308.116 603.625 308.762 603.449 309.453 603.449C310.156 603.449 310.807 603.625 311.408 603.976C312.009 604.316 312.496 604.815 312.87 605.472C313.244 606.118 313.431 606.906 313.431 607.835C313.431 608.753 313.244 609.541 312.87 610.198C312.496 610.844 312.009 611.343 311.408 611.694C310.807 612.034 310.156 612.204 309.453 612.204ZM309.453 610.606C310.065 610.606 310.547 610.351 310.898 609.841C311.249 609.331 311.425 608.662 311.425 607.835C311.425 606.996 311.249 606.322 310.898 605.812C310.547 605.302 310.065 605.047 309.453 605.047C308.841 605.047 308.359 605.302 308.008 605.812C307.668 606.322 307.498 606.996 307.498 607.835C307.498 608.662 307.668 609.331 308.008 609.841C308.359 610.351 308.841 610.606 309.453 610.606ZM315.366 612V603.653H316.981L317.117 604.775H317.185C317.559 604.412 317.967 604.101 318.409 603.84C318.851 603.579 319.355 603.449 319.922 603.449C320.817 603.449 321.469 603.738 321.877 604.316C322.285 604.894 322.489 605.71 322.489 606.764V612H320.534V607.019C320.534 606.328 320.432 605.84 320.228 605.557C320.024 605.274 319.69 605.132 319.225 605.132C318.862 605.132 318.539 605.223 318.256 605.404C317.984 605.574 317.672 605.829 317.321 606.169V612H315.366ZM327.82 612.204C326.856 612.204 326.171 611.926 325.763 611.371C325.366 610.804 325.168 610.073 325.168 609.178V605.2H323.978V603.738L325.27 603.653L325.508 601.375H327.14V603.653H329.265V605.2H327.14V609.178C327.14 610.153 327.531 610.64 328.313 610.64C328.46 610.64 328.613 610.623 328.772 610.589C328.93 610.544 329.066 610.498 329.18 610.453L329.52 611.898C329.293 611.977 329.032 612.045 328.738 612.102C328.454 612.17 328.148 612.204 327.82 612.204ZM332.679 612.204C331.954 612.204 331.359 611.977 330.894 611.524C330.441 611.071 330.214 610.481 330.214 609.756C330.214 608.861 330.605 608.169 331.387 607.682C332.169 607.183 333.416 606.843 335.127 606.662C335.116 606.22 334.997 605.84 334.77 605.523C334.555 605.194 334.164 605.03 333.597 605.03C333.189 605.03 332.787 605.109 332.39 605.268C332.005 605.427 331.625 605.619 331.251 605.846L330.537 604.537C331.002 604.242 331.523 603.987 332.101 603.772C332.69 603.557 333.314 603.449 333.971 603.449C335.014 603.449 335.79 603.761 336.3 604.384C336.821 604.996 337.082 605.886 337.082 607.053V612H335.467L335.331 611.082H335.263C334.889 611.399 334.487 611.666 334.056 611.881C333.637 612.096 333.178 612.204 332.679 612.204ZM333.308 610.674C333.648 610.674 333.954 610.595 334.226 610.436C334.509 610.266 334.81 610.039 335.127 609.756V607.886C333.994 608.033 333.206 608.254 332.764 608.549C332.322 608.832 332.101 609.184 332.101 609.603C332.101 609.977 332.214 610.249 332.441 610.419C332.668 610.589 332.957 610.674 333.308 610.674ZM342.907 612.204C342.147 612.204 341.462 612.034 340.85 611.694C340.249 611.343 339.767 610.844 339.405 610.198C339.053 609.541 338.878 608.753 338.878 607.835C338.878 606.906 339.07 606.118 339.456 605.472C339.841 604.815 340.351 604.316 340.986 603.976C341.632 603.625 342.323 603.449 343.06 603.449C343.592 603.449 344.057 603.54 344.454 603.721C344.85 603.902 345.202 604.123 345.508 604.384L344.556 605.659C344.34 605.466 344.119 605.319 343.893 605.217C343.666 605.104 343.422 605.047 343.162 605.047C342.493 605.047 341.943 605.302 341.513 605.812C341.093 606.322 340.884 606.996 340.884 607.835C340.884 608.662 341.088 609.331 341.496 609.841C341.915 610.351 342.453 610.606 343.111 610.606C343.439 610.606 343.745 610.538 344.029 610.402C344.323 610.255 344.59 610.085 344.828 609.892L345.627 611.184C345.241 611.524 344.811 611.779 344.335 611.949C343.859 612.119 343.383 612.204 342.907 612.204ZM350.049 612.204C349.086 612.204 348.4 611.926 347.992 611.371C347.596 610.804 347.397 610.073 347.397 609.178V605.2H346.207V603.738L347.499 603.653L347.737 601.375H349.369V603.653H351.494V605.2H349.369V609.178C349.369 610.153 349.76 610.64 350.542 610.64C350.69 610.64 350.843 610.623 351.001 610.589C351.16 610.544 351.296 610.498 351.409 610.453L351.749 611.898C351.523 611.977 351.262 612.045 350.967 612.102C350.684 612.17 350.378 612.204 350.049 612.204Z" fill="#F0F8FF"/>
</g>
<defs>
<clipPath id="clip0_55_82">
<rect width="1188" height="725" fill="white" transform="matrix(1 0 0 -1 0 725)"/>
</clipPath>
</defs>
</svg>
